HIERARCHY
ROOT root
{
	OFFSET	0	13.1	24.9
	CHANNELS 6  Xposition Yposition Zposition Xrotation Yrotation Zrotation
	JOINT spine_1
	{
		OFFSET	0	9.99999	0
		CHANNELS 3  Xrotation Yrotation Zrotation
		JOINT spine_2
		{
			OFFSET	0	112	-10
			CHANNELS 3  Xrotation Yrotation Zrotation
			JOINT spine_3
			{
				OFFSET	0	206.5	19.3
				CHANNELS 3  Xrotation Yrotation Zrotation
				JOINT spine_4
				{
					OFFSET	0	110.4	14.6
					CHANNELS 3  Xrotation Yrotation Zrotation
					JOINT neck_1
					{
						OFFSET	0	71.8	-50.3
						CHANNELS 3  Xrotation Yrotation Zrotation
						JOINT neck_2
						{
							OFFSET	0	86.2	-25.8
							CHANNELS 3  Xrotation Yrotation Zrotation
							JOINT head_ee
							{
								OFFSET	0	179.8	-8.7
								CHANNELS 3  Xrotation Yrotation Zrotation
								End Site
								{
									OFFSET	1	0	0
								}
							}
						}
					}
					JOINT left_clavicle
					{
						OFFSET	-43.2	22.4	-70.8
						CHANNELS 3  Xrotation Yrotation Zrotation
						JOINT left_shoulder
						{
							OFFSET	-93.9	-5.79999	48.7
							CHANNELS 3  Xrotation Yrotation Zrotation
							JOINT left_elbow
							{
								OFFSET	-291.4	-30.8	15.2
								CHANNELS 3  Xrotation Yrotation Zrotation
								JOINT left_lowarm_twist
								{
									OFFSET	-110.7	-3.89999	13.6
									CHANNELS 3  Xrotation Yrotation Zrotation
									JOINT left_hand
									{
										OFFSET	-110.7	-3.89999	13.6
										CHANNELS 3  Xrotation Yrotation Zrotation
										JOINT left_ee
										{
											OFFSET	-80.8	-5.10001	12.1
											CHANNELS 3  Xrotation Yrotation Zrotation
											End Site
											{
												OFFSET	1	0	0
											}
										}
									}
								}
							}
						}
					}
					JOINT right_clavicle
					{
						OFFSET	43.2	22.4	-70.8
						CHANNELS 3  Xrotation Yrotation Zrotation
						JOINT right_shoulder
						{
							OFFSET	93.9	-5.79999	48.7
							CHANNELS 3  Xrotation Yrotation Zrotation
							JOINT right_elbow
							{
								OFFSET	291.4	-30.8	15.2
								CHANNELS 3  Xrotation Yrotation Zrotation
								JOINT right_lowarm_twist
								{
									OFFSET	110.7	-3.89999	13.6
									CHANNELS 3  Xrotation Yrotation Zrotation
									JOINT right_hand
									{
										OFFSET	110.7	-3.89999	13.6
										CHANNELS 3  Xrotation Yrotation Zrotation
										JOINT right_ee
										{
											OFFSET	80.8	-5.10001	12.1
											CHANNELS 3  Xrotation Yrotation Zrotation
											End Site
											{
												OFFSET	1	0	0
											}
										}
									}
								}
							}
						}
					}
				}
			}
		}
	}
	JOINT left_hip
	{
		OFFSET	-82.8	-127.5	0.300001
		CHANNELS 3  Xrotation Yrotation Zrotation
		JOINT left_knee
		{
			OFFSET	-28.2	-396.7	2.2
			CHANNELS 3  Xrotation Yrotation Zrotation
			JOINT left_ankle
			{
				OFFSET	-11.7	-411.3	35.4
				CHANNELS 3  Xrotation Yrotation Zrotation
				JOINT left_toes
				{
					OFFSET	0	-60	-88.6
					CHANNELS 3  Xrotation Yrotation Zrotation
					JOINT left_foot_ee
					{
						OFFSET	-22.5	-16.5	-42.2
						CHANNELS 3  Xrotation Yrotation Zrotation
						End Site
						{
							OFFSET	1	0	0
						}
					}
				}
			}
		}
	}
	JOINT right_hip
	{
		OFFSET	82.8	-127.5	0.300001
		CHANNELS 3  Xrotation Yrotation Zrotation
		JOINT right_knee
		{
			OFFSET	28.2	-396.7	2.2
			CHANNELS 3  Xrotation Yrotation Zrotation
			JOINT right_ankle
			{
				OFFSET	11.7	-411.3	35.4
				CHANNELS 3  Xrotation Yrotation Zrotation
				JOINT right_toes
				{
					OFFSET	0	-60	-88.6
					CHANNELS 3  Xrotation Yrotation Zrotation
					JOINT right_foot_ee
					{
						OFFSET	22.5	-16.5	-42.2
						CHANNELS 3  Xrotation Yrotation Zrotation
						End Site
						{
							OFFSET	1	0	0
						}
					}
				}
			}
		}
	}
}
MOTION
Frames: 7
Frame Time: 0.02
154.564 702.05 -513.933 -156.116 -77.3965 -161.867 1.56014 0.511946 3.23587 1.56591 0.305114 3.26185 1.58387 -0.297354 3.26257 1.56908 0.221356 3.2686 -17.5444 5.27904 -7.36937 -17.6312 14.2008 -4.90738 -0.0 0.0 -0.0 6.68685 22.3914 12.0886 -0.266933 -2.2067 63.2593 1.05285 -27.5437 0.258064 -43.7679 -3.36049 4.31795 5.86869 7.8474 46.7776 -0.0 0.0 -0.0 9.41709 2.23582 -18.5308 -3.51145 -26.9983 -63.3285 0.651222 17.8796 -0.102443 83.9178 4.29742 8.81501 8.04295 14.4465 -55.5754 0.0 0.0 0.0 8.42559 -4.80619 6.72373 -11.2749 0.297577 1.70194 19.6927 -1.1708 -2.72106 -5.44212 0.0 0.0 -0.0 0.0 -0.0 23.6949 -4.06586 11.8875 -25.9166 -0.178688 -3.93935 20.9836 22.8023 3.28566 -17.8322 0.0 0.0 0.0 0.0 0.0 
156.514 702.106 -505.165 -151.904 -79.2483 -157.499 1.40918 0.555461 3.07974 1.41438 0.358461 3.10881 1.43465 -0.224908 3.1213 1.42116 0.27062 3.11767 -17.9982 3.97403 -6.87395 -18.026 11.3745 -4.90124 -0.0 0.0 -0.0 6.66712 20.2144 12.2304 0.526165 4.64062 62.8827 0.8779 -23.5033 0.182633 -46.3648 -3.65205 4.4794 5.03247 7.28124 38.9403 -0.0 0.0 -0.0 9.53675 0.492089 -18.7216 -2.76254 -24.7763 -63.7183 0.781063 21.1522 -0.145837 82.0018 4.07127 8.71856 7.8163 15.0179 -52.5606 0.0 0.0 0.0 8.74913 -2.53397 5.98362 -11.1923 0.296623 1.68931 20.1706 -3.21203 -2.79689 -4.79849 0.0 0.0 -0.0 0.0 -0.0 22.2316 -5.52097 11.9665 -24.9927 -0.203068 -3.79966 23.773 25.91 3.78348 -17.8213 0.0 0.0 0.0 0.0 0.0 
159.489 701.495 -499.381 -150.875 -79.9451 -157.021 1.20599 0.612194 3.01215 1.21094 0.419374 3.04496 1.23437 -0.163842 3.06931 1.22137 0.322723 3.0567 -18.7201 3.10275 -5.45086 -18.7411 8.86456 -3.85549 -0.0 0.0 -0.0 6.58572 19.0209 12.1898 2.18404 11.5877 62.0281 0.713037 -19.4541 0.12223 -47.9037 -3.82817 4.5688 2.81797 6.585 21.6855 -0.0 0.0 -0.0 10.1011 0.94993 -19.9089 0.68614 -22.5997 -64.2629 0.758632 20.5964 -0.137844 80.5151 3.89807 8.63854 7.62118 15.7327 -49.9218 0.0 0.0 0.0 8.25636 -3.60421 5.24312 -10.6547 0.289963 1.60709 18.2515 -1.39241 -2.54055 -1.33686 0.0 0.0 -0.0 0.0 -0.0 22.9086 -7.25436 12.421 -27.031 -0.146287 -4.1073 25.4849 23.3601 3.90625 -21.217 0.0 0.0 0.0 0.0 0.0 
162.82 702.571 -493.641 -149.046 -81.1092 -154.143 1.02039 0.672204 2.70075 1.02431 0.499052 2.73801 1.04941 -0.0364278 2.78285 1.03883 0.403359 2.75372 -18.1037 2.64138 -4.06344 -18.1236 7.27966 -2.77847 -0.0 0.0 -0.0 6.60924 17.9737 12.2955 4.1441 17.5227 61.1317 0.56756 -15.7036 0.0782695 -50.0707 -4.08007 4.68659 0.853866 6.93461 8.4813 -0.0 0.0 -0.0 10.7025 2.16169 -21.228 3.52684 -20.8161 -64.7538 0.754292 20.4884 -0.136321 78.8006 3.70097 8.54072 7.39085 15.6868 -47.7096 0.0 0.0 0.0 8.12448 -2.8773 3.40652 -11.0305 0.2947 1.66456 19.1211 -1.56756 -2.65203 0.209698 -0.0 -0.0 -0.0 0.0 -0.0 22.2275 -10.255 11.1912 -26.1992 -0.170781 -3.982 27.094 26.7505 4.261 -22.6511 0.0 0.0 0.0 0.0 0.0 
166.341 700.076 -486.565 -144.302 -81.9826 -148.885 0.91343 0.448702 2.41755 0.916634 0.294005 2.44118 0.930131 -0.185887 2.45178 0.9218 0.203539 2.45038 -16.8524 2.39049 -3.89106 -16.8603 6.77837 -2.78146 -0.0 0.0 -0.0 6.42141 17.1745 12.0447 5.9782 23.265 60.1715 0.400566 -11.2235 0.0393591 -51.404 -4.2372 4.75431 -0.88717 11.1076 -1.05773 -0.0 0.0 -0.0 10.8191 4.02897 -21.5517 5.56667 -20.3517 -64.7368 0.729478 19.8679 -0.127761 78.2717 3.64076 8.50936 6.88106 14.0958 -44.1803 0.0 0.0 0.0 8.27519 -0.916862 3.76321 -11.1356 0.295957 1.68063 17.1893 1.86897 -2.38732 1.27088 -0.0 -0.0 -0.0 0.0 -0.0 21.6991 -14.9468 10.5677 -25.3451 -0.194034 -3.85299 30.9182 27.2921 4.76372 -23.4141 0.0 0.0 0.0 0.0 0.0 
171.04 701.217 -486.183 -137.697 -83.5288 -141.492 0.735821 0.342264 1.93815 0.737884 0.218265 1.95599 0.746052 -0.172223 1.96058 0.740715 0.139514 1.96317 -16.5584 3.55983 -4.9778 -16.5876 9.65494 -3.39804 -0.0 0.0 -0.0 6.20091 17.0819 11.697 7.00249 27.4417 59.5847 0.288017 -8.12007 0.0204434 -51.0105 -4.19067 4.73471 -2.19296 17.5915 -6.17913 -0.0 0.0 -0.0 10.7693 6.1446 -21.5009 8.38279 -20.0693 -61.0122 0.53606 14.8718 -0.0699639 76.9705 3.49391 8.42986 6.20128 8.3417 -41.8526 0.0 0.0 0.0 8.27151 3.05463 3.9526 -11.8946 0.304161 1.79681 14.5594 7.26355 -2.03478 1.42238 -0.0 -0.0 -0.0 0.0 -0.0 21.1591 -19.591 10.7332 -24.216 -0.221817 -3.68195 30.9722 26.1084 4.70777 -26.1101 0.0 0.0 0.0 0.0 0.0 
181.758 699.36 -484.932 -133.141 -84.1934 -136.318 0.525296 0.487172 1.62933 0.526691 0.382521 1.65702 0.538477 0.0417587 1.70008 0.534577 0.309692 1.67216 -14.8429 3.55752 -6.52093 -14.82 10.6915 -5.0053 -0.0 0.0 -0.0 5.95514 17.1068 11.3036 7.73767 30.7449 59.021 0.207571 -5.87093 0.010644 -49.3801 -3.99932 4.65009 -3.96075 26.6119 -11.5336 -0.0 0.0 -0.0 11.308 7.96273 -22.7121 10.949 -20.3425 -58.1595 0.441188 12.3285 -0.0476499 74.457 3.21549 8.26696 5.97176 5.50879 -41.432 0.0 0.0 0.0 8.5171 2.98522 2.8931 -13.1532 0.31437 1.98964 18.909 10.6143 -2.59911 0.0119769 -0.0 -0.0 -0.0 0.0 -0.0 18.3237 -24.9416 9.70176 -19.7676 -0.298332 -3.0038 32.6118 24.4792 4.81509 -26.7064 0.0 0.0 0.0 0.0 0.0 
